<svg xmlns="http://www.w3.org/2000/svg" xmlns:xlink="http://www.w3.org/1999/xlink" preserveAspectRatio="xMidYMid" width="38.406" height="28.82" viewBox="0 0 38.406 28.82">
  <defs>
    <style>
      .cls-1 {
        fill: #454546;
        fill-rule: evenodd;
      }
    </style>
  </defs>
  <path d="M37.865,15.699 L37.866,15.701 L30.666,22.901 L30.665,22.899 C30.340,23.214 29.900,23.410 29.412,23.410 C28.418,23.410 27.612,22.604 27.612,21.610 C27.612,21.122 27.808,20.681 28.123,20.358 L28.121,20.356 L34.057,14.419 L28.139,8.501 L28.141,8.500 C27.804,8.173 27.593,7.716 27.593,7.210 C27.593,6.215 28.399,5.410 29.393,5.410 C29.900,5.410 30.356,5.621 30.683,5.958 L30.685,5.955 L37.780,13.051 C38.164,13.381 38.412,13.864 38.412,14.410 C38.412,14.916 38.201,15.372 37.865,15.699 ZM16.087,27.620 C15.837,28.314 15.173,28.810 14.393,28.810 C13.399,28.810 12.593,28.004 12.593,27.010 C12.593,26.782 12.636,26.565 12.713,26.364 L22.300,1.199 C22.550,0.506 23.213,0.010 23.993,0.010 C24.987,0.010 25.793,0.816 25.793,1.810 C25.793,2.037 25.751,2.255 25.673,2.456 L16.087,27.620 ZM10.266,8.501 L4.348,14.419 L10.285,20.356 L10.283,20.358 C10.598,20.681 10.793,21.122 10.793,21.610 C10.793,22.604 9.987,23.410 8.993,23.410 C8.506,23.410 8.065,23.214 7.741,22.899 L7.739,22.901 L0.539,15.701 L0.541,15.699 C0.204,15.372 -0.007,14.916 -0.007,14.410 C-0.007,13.864 0.241,13.381 0.625,13.051 L7.720,5.955 L7.722,5.958 C8.049,5.621 8.505,5.410 9.012,5.410 C10.006,5.410 10.812,6.215 10.812,7.210 C10.812,7.716 10.601,8.173 10.264,8.500 L10.266,8.501 Z" class="cls-1"/>
</svg>
