<svg xmlns="http://www.w3.org/2000/svg" xmlns:xlink="http://www.w3.org/1999/xlink" preserveAspectRatio="xMidYMid" width="29.75" height="26.88" viewBox="0 0 29.75 26.88">
  <defs>
    <style>
      .cls-1 {
        fill: #1dde85;
        fill-rule: evenodd;
      }
    </style>
  </defs>
  <path d="M28.315,22.080 L21.115,22.080 L19.195,22.080 L19.195,24.480 L21.115,26.400 L21.115,26.880 L8.635,26.880 L8.635,26.400 L10.555,24.480 L10.555,22.080 L8.635,22.080 L1.435,22.080 C0.640,22.080 -0.005,21.435 -0.005,20.639 L-0.005,1.440 C-0.005,0.644 0.640,-0.000 1.435,-0.000 L28.315,-0.000 C29.110,-0.000 29.755,0.644 29.755,1.440 L29.755,20.639 C29.755,21.435 29.110,22.080 28.315,22.080 ZM27.835,1.920 L1.915,1.920 L1.915,18.240 L27.835,18.240 L27.835,1.920 Z" class="cls-1"/>
</svg>
