<svg xmlns="http://www.w3.org/2000/svg" xmlns:xlink="http://www.w3.org/1999/xlink" preserveAspectRatio="xMidYMid" width="35.219" height="20.38" viewBox="0 0 35.219 20.38">
  <defs>
    <style>
      .cls-1 {
        fill: #454546;
        fill-rule: evenodd;
      }
    </style>
  </defs>
  <path d="M35.205,10.257 C35.204,10.273 35.202,10.287 35.202,10.301 C35.201,10.309 35.200,10.316 35.199,10.324 C35.199,10.334 35.197,10.346 35.195,10.356 C35.194,10.368 35.193,10.381 35.190,10.393 C35.190,10.395 35.190,10.396 35.190,10.398 C35.146,10.677 35.018,10.937 34.822,11.138 C34.453,11.587 34.049,12.007 33.643,12.419 C31.450,14.646 28.933,16.632 26.178,18.073 C24.417,18.994 22.536,19.736 20.584,20.094 C18.438,20.486 16.290,20.466 14.156,20.002 C10.462,19.199 7.117,17.204 4.191,14.819 C2.832,13.712 1.497,12.500 0.374,11.138 C-0.118,10.543 -0.118,9.837 0.374,9.241 C0.743,8.794 1.146,8.373 1.552,7.961 C3.745,5.734 6.262,3.747 9.018,2.307 C10.778,1.386 12.660,0.643 14.611,0.286 C16.757,-0.106 18.905,-0.086 21.040,0.377 C24.733,1.181 28.079,3.176 31.004,5.561 C32.362,6.668 33.698,7.880 34.821,9.242 C35.018,9.443 35.146,9.704 35.189,9.982 C35.189,9.983 35.189,9.985 35.190,9.987 C35.192,9.999 35.193,10.011 35.195,10.024 C35.196,10.035 35.198,10.045 35.199,10.056 C35.199,10.064 35.200,10.071 35.201,10.079 C35.202,10.094 35.203,10.108 35.204,10.123 C35.205,10.145 35.206,10.167 35.206,10.190 C35.206,10.213 35.206,10.235 35.205,10.257 ZM17.606,3.315 C13.961,3.315 11.006,6.270 11.006,9.915 C11.006,13.560 13.961,16.515 17.606,16.515 C21.251,16.515 24.206,13.560 24.206,9.915 C24.206,6.270 21.251,3.315 17.606,3.315 ZM17.606,13.215 C15.783,13.215 14.306,11.737 14.306,9.915 C14.306,8.092 15.783,6.615 17.606,6.615 C19.428,6.615 20.906,8.092 20.906,9.915 C20.906,11.737 19.428,13.215 17.606,13.215 Z" class="cls-1"/>
</svg>
