<svg xmlns="http://www.w3.org/2000/svg" xmlns:xlink="http://www.w3.org/1999/xlink" preserveAspectRatio="xMidYMid" width="31.62" height="28.5" viewBox="0 0 31.62 28.5">
  <defs>
    <style>
      .cls-1 {
        fill: #454546;
        fill-rule: evenodd;
      }
    </style>
  </defs>
  <path d="M29.773,8.687 C26.168,5.170 21.244,3.000 15.810,3.000 C10.376,3.000 5.452,5.170 1.847,8.687 L-0.001,6.305 C4.121,2.400 9.684,-0.000 15.810,-0.000 C21.937,-0.000 27.499,2.400 31.621,6.305 L29.773,8.687 ZM15.810,7.500 C20.206,7.500 24.171,9.333 26.992,12.272 L25.122,14.681 C22.833,12.121 19.515,10.500 15.810,10.500 C12.105,10.500 8.787,12.121 6.498,14.681 L4.628,12.272 C7.449,9.333 11.414,7.500 15.810,7.500 ZM15.810,15.000 C18.482,15.000 20.841,16.314 22.294,18.326 L20.643,20.455 C19.551,18.969 17.796,18.000 15.810,18.000 C13.824,18.000 12.069,18.969 10.977,20.455 L9.326,18.326 C10.779,16.314 13.138,15.000 15.810,15.000 ZM15.810,22.500 C17.467,22.500 18.810,23.843 18.810,25.500 C18.810,27.157 17.467,28.500 15.810,28.500 C14.153,28.500 12.810,27.157 12.810,25.500 C12.810,23.843 14.153,22.500 15.810,22.500 Z" class="cls-1"/>
</svg>
